<svg xmlns="http://www.w3.org/2000/svg" width="24" height="24" viewBox="0 0 64 50" fill="white">
<path d="M52.8054 39.4209V38.9209V12.3343V12.1192L52.9616 11.9713L59.0172 6.23469L59.27 5.9953L59.5822 6.14921C60.7693 6.73441 62.206 6.37908 62.9827 5.30694L62.9829 5.30675C63.7601 4.23498 63.6511 2.75919 62.7252 1.8131C61.7994 0.867043 60.3267 0.725817 59.2376 1.47887L52.8054 39.4209ZM52.8054 39.4209H53.3054M52.8054 39.4209H53.3054M53.3054 39.4209H54.3715C55.8616 39.4209 57.0699 40.6291 57.0699 42.1192V46.3836C57.0699 47.8737 55.8616 49.0819 54.3715 49.0819H3.19833C1.7082 49.0819 0.5 47.8737 0.5 46.3836V42.1192C0.5 40.6291 1.7082 39.4209 3.19833 39.4209H4.26443H4.76443V38.9209V6.93761C4.76443 5.44749 5.97264 4.23928 7.46276 4.23928H50.1071C51.5972 4.23928 52.8054 5.44749 52.8054 6.93761V9.39726V10.5602L53.6494 9.76012L58.2121 5.43478L58.4734 5.18705M53.3054 39.4209L58.4734 5.18705M58.4734 5.18705L58.3213 4.86068M58.4734 5.18705L58.3213 4.86068M58.3213 4.86068C57.7621 3.66096 58.1489 2.23261 59.2374 1.479L58.3213 4.86068ZM15.9916 21.297H15.9902C14.773 21.2935 13.7046 22.1043 13.381 23.2772C13.0573 24.4504 13.5584 25.6945 14.6049 26.3155L14.605 26.3155C15.6511 26.9365 16.984 26.7806 17.8584 25.9343L18.1133 25.6876L18.4303 25.8467L22.1358 27.706C22.3635 27.82 22.6409 27.7668 22.8112 27.5755L30.6887 18.7132L30.9942 18.3694L31.3622 18.6452L39.1061 24.4479L38.8182 24.832L39.1061 24.4479C39.3267 24.6132 39.6348 24.5954 39.8348 24.4062L46.5649 18.0311L47.4088 17.2318V18.3941V34.6564V35.1564H46.9088H10.6611H10.1611V34.6564V10.1359V9.63593H10.6611H46.9088H47.4088V10.1359V15.4566V15.6717L47.2526 15.8196L39.7096 22.9628L39.4034 23.2528L39.0659 22.9998L31.2572 17.1457L15.9916 21.297ZM15.9916 21.297C17.4784 21.297 18.6845 22.4997 18.6899 23.9852C18.6853 24.09 18.6742 24.1944 18.6565 24.298L18.5941 24.6635L18.9257 24.8293L21.9111 26.3223L22.2539 26.4937M15.9916 21.297L22.2539 26.4937M22.2539 26.4937L22.5085 26.2072M22.2539 26.4937L22.5085 26.2072M22.5085 26.2072L30.4941 17.2222M22.5085 26.2072L30.4941 17.2222M30.4941 17.2222C30.6897 17.0026 31.0212 16.9692 31.257 17.1456L30.4941 17.2222ZM51.5176 11.7774L51.6732 11.6296V11.4149V6.93761C51.6732 6.07271 50.972 5.3715 50.1071 5.3715H7.46276C6.59786 5.3715 5.89665 6.07271 5.89665 6.93761V38.9209V39.4209H6.39665H51.1732H51.6732V38.9209V14.3535V13.191L50.8293 13.9906L48.6971 16.0109L48.541 16.1588V16.3738V35.7225C48.541 36.0351 48.2875 36.2886 47.9749 36.2886H9.59498C9.28236 36.2886 9.02887 36.0351 9.02887 35.7225V9.06982C9.02887 8.75721 9.28236 8.50371 9.59498 8.50371H47.9749C48.2875 8.50371 48.541 8.75721 48.541 9.06982V13.441V14.6058L49.3854 13.8034L51.5176 11.7774ZM23.4544 40.5531H22.9544V41.0531V42.1192C22.9544 42.9841 23.6556 43.6853 24.5205 43.6853H33.0494C33.9143 43.6853 34.6155 42.9841 34.6155 42.1192V41.0531V40.5531H34.1155H23.4544ZM21.8222 41.0531V40.5531H21.3222H3.19833C2.33343 40.5531 1.63222 41.2543 1.63222 42.1192V46.3836C1.63222 47.2485 2.33343 47.9497 3.19833 47.9497H54.3715C55.2364 47.9497 55.9376 47.2485 55.9376 46.3836V42.1192C55.9376 41.2543 55.2364 40.5531 54.3715 40.5531H36.2477H35.7477V41.0531V42.1192C35.7477 43.6093 34.5395 44.8175 33.0494 44.8175H24.5205C23.0304 44.8175 21.8222 43.6093 21.8222 42.1192V41.0531ZM62.3343 3.73928C62.3343 2.87438 61.6331 2.17317 60.7682 2.17317C59.9033 2.17317 59.2021 2.87438 59.2021 3.73928C59.2021 4.60418 59.9033 5.30539 60.7682 5.30539C61.6331 5.30539 62.3343 4.60418 62.3343 3.73928ZM15.9916 25.5615C16.8565 25.5615 17.5577 24.8602 17.5577 23.9953C17.5577 23.1304 16.8565 22.4292 15.9916 22.4292C15.1267 22.4292 14.4255 23.1304 14.4255 23.9953C14.4255 24.8602 15.1267 25.5615 15.9916 25.5615Z" fill="#2E2F42"/>
<path d="M52.8054 39.4209V38.9209V12.3343V12.1192L52.9616 11.9713L59.0172 6.23469L59.27 5.9953L59.5822 6.14921C60.7693 6.73441 62.206 6.37908 62.9827 5.30694L62.9829 5.30675C63.7601 4.23498 63.6511 2.75919 62.7252 1.8131C61.7994 0.867043 60.3267 0.725817 59.2376 1.47887L52.8054 39.4209ZM52.8054 39.4209H53.3054M52.8054 39.4209H53.3054M53.3054 39.4209H54.3715C55.8616 39.4209 57.0699 40.6291 57.0699 42.1192V46.3836C57.0699 47.8737 55.8616 49.0819 54.3715 49.0819H3.19833C1.7082 49.0819 0.5 47.8737 0.5 46.3836V42.1192C0.5 40.6291 1.7082 39.4209 3.19833 39.4209H4.26443H4.76443V38.9209V6.93761C4.76443 5.44749 5.97264 4.23928 7.46276 4.23928H50.1071C51.5972 4.23928 52.8054 5.44749 52.8054 6.93761V9.39726V10.5602L53.6494 9.76012L58.2121 5.43478L58.4734 5.18705M53.3054 39.4209L58.4734 5.18705M58.4734 5.18705L58.3213 4.86068M58.4734 5.18705L58.3213 4.86068M58.3213 4.86068C57.7621 3.66096 58.1489 2.23261 59.2374 1.479L58.3213 4.86068ZM15.9916 21.297H15.9902C14.773 21.2935 13.7046 22.1043 13.381 23.2772C13.0573 24.4504 13.5584 25.6945 14.6049 26.3155L14.605 26.3155C15.6511 26.9365 16.984 26.7806 17.8584 25.9343L18.1133 25.6876L18.4303 25.8467L22.1358 27.706C22.3635 27.82 22.6409 27.7668 22.8112 27.5755L30.6887 18.7132L30.9942 18.3694L31.3622 18.6452L39.1061 24.4479L38.8182 24.832L39.1061 24.4479C39.3267 24.6132 39.6348 24.5954 39.8348 24.4062L46.5649 18.0311L47.4088 17.2318V18.3941V34.6564V35.1564H46.9088H10.6611H10.1611V34.6564V10.1359V9.63593H10.6611H46.9088H47.4088V10.1359V15.4566V15.6717L47.2526 15.8196L39.7096 22.9628L39.4034 23.2528L39.0659 22.9998L31.2572 17.1457L15.9916 21.297ZM15.9916 21.297C17.4784 21.297 18.6845 22.4997 18.6899 23.9852C18.6853 24.09 18.6742 24.1944 18.6565 24.298L18.5941 24.6635L18.9257 24.8293L21.9111 26.3223L22.2539 26.4937M15.9916 21.297L22.2539 26.4937M22.2539 26.4937L22.5085 26.2072M22.2539 26.4937L22.5085 26.2072M22.5085 26.2072L30.4941 17.2222M22.5085 26.2072L30.4941 17.2222M30.4941 17.2222C30.6897 17.0026 31.0212 16.9692 31.257 17.1456L30.4941 17.2222ZM51.5176 11.7774L51.6732 11.6296V11.4149V6.93761C51.6732 6.07271 50.972 5.3715 50.1071 5.3715H7.46276C6.59786 5.3715 5.89665 6.07271 5.89665 6.93761V38.9209V39.4209H6.39665H51.1732H51.6732V38.9209V14.3535V13.191L50.8293 13.9906L48.6971 16.0109L48.541 16.1588V16.3738V35.7225C48.541 36.0351 48.2875 36.2886 47.9749 36.2886H9.59498C9.28236 36.2886 9.02887 36.0351 9.02887 35.7225V9.06982C9.02887 8.75721 9.28236 8.50371 9.59498 8.50371H47.9749C48.2875 8.50371 48.541 8.75721 48.541 9.06982V13.441V14.6058L49.3854 13.8034L51.5176 11.7774ZM23.4544 40.5531H22.9544V41.0531V42.1192C22.9544 42.9841 23.6556 43.6853 24.5205 43.6853H33.0494C33.9143 43.6853 34.6155 42.9841 34.6155 42.1192V41.0531V40.5531H34.1155H23.4544ZM21.8222 41.0531V40.5531H21.3222H3.19833C2.33343 40.5531 1.63222 41.2543 1.63222 42.1192V46.3836C1.63222 47.2485 2.33343 47.9497 3.19833 47.9497H54.3715C55.2364 47.9497 55.9376 47.2485 55.9376 46.3836V42.1192C55.9376 41.2543 55.2364 40.5531 54.3715 40.5531H36.2477H35.7477V41.0531V42.1192C35.7477 43.6093 34.5395 44.8175 33.0494 44.8175H24.5205C23.0304 44.8175 21.8222 43.6093 21.8222 42.1192V41.0531ZM62.3343 3.73928C62.3343 2.87438 61.6331 2.17317 60.7682 2.17317C59.9033 2.17317 59.2021 2.87438 59.2021 3.73928C59.2021 4.60418 59.9033 5.30539 60.7682 5.30539C61.6331 5.30539 62.3343 4.60418 62.3343 3.73928ZM15.9916 25.5615C16.8565 25.5615 17.5577 24.8602 17.5577 23.9953C17.5577 23.1304 16.8565 22.4292 15.9916 22.4292C15.1267 22.4292 14.4255 23.1304 14.4255 23.9953C14.4255 24.8602 15.1267 25.5615 15.9916 25.5615Z" stroke="#4D5AE5"/>
<path d="M52.8054 39.4209V38.9209V12.3343V12.1192L52.9616 11.9713L59.0172 6.23469L59.27 5.9953L59.5822 6.14921C60.7693 6.73441 62.206 6.37908 62.9827 5.30694L62.9829 5.30675C63.7601 4.23498 63.6511 2.75919 62.7252 1.8131C61.7994 0.867043 60.3267 0.725817 59.2376 1.47887L52.8054 39.4209ZM52.8054 39.4209H53.3054M52.8054 39.4209H53.3054M53.3054 39.4209H54.3715C55.8616 39.4209 57.0699 40.6291 57.0699 42.1192V46.3836C57.0699 47.8737 55.8616 49.0819 54.3715 49.0819H3.19833C1.7082 49.0819 0.5 47.8737 0.5 46.3836V42.1192C0.5 40.6291 1.7082 39.4209 3.19833 39.4209H4.26443H4.76443V38.9209V6.93761C4.76443 5.44749 5.97264 4.23928 7.46276 4.23928H50.1071C51.5972 4.23928 52.8054 5.44749 52.8054 6.93761V9.39726V10.5602L53.6494 9.76012L58.2121 5.43478L58.4734 5.18705M53.3054 39.4209L58.4734 5.18705M58.4734 5.18705L58.3213 4.86068M58.4734 5.18705L58.3213 4.86068M58.3213 4.86068C57.7621 3.66096 58.1489 2.23261 59.2374 1.479L58.3213 4.86068ZM15.9916 21.297H15.9902C14.773 21.2935 13.7046 22.1043 13.381 23.2772C13.0573 24.4504 13.5584 25.6945 14.6049 26.3155L14.605 26.3155C15.6511 26.9365 16.984 26.7806 17.8584 25.9343L18.1133 25.6876L18.4303 25.8467L22.1358 27.706C22.3635 27.82 22.6409 27.7668 22.8112 27.5755L30.6887 18.7132L30.9942 18.3694L31.3622 18.6452L39.1061 24.4479L38.8182 24.832L39.1061 24.4479C39.3267 24.6132 39.6348 24.5954 39.8348 24.4062L46.5649 18.0311L47.4088 17.2318V18.3941V34.6564V35.1564H46.9088H10.6611H10.1611V34.6564V10.1359V9.63593H10.6611H46.9088H47.4088V10.1359V15.4566V15.6717L47.2526 15.8196L39.7096 22.9628L39.4034 23.2528L39.0659 22.9998L31.2572 17.1457L15.9916 21.297ZM15.9916 21.297C17.4784 21.297 18.6845 22.4997 18.6899 23.9852C18.6853 24.09 18.6742 24.1944 18.6565 24.298L18.5941 24.6635L18.9257 24.8293L21.9111 26.3223L22.2539 26.4937M15.9916 21.297L22.2539 26.4937M22.2539 26.4937L22.5085 26.2072M22.2539 26.4937L22.5085 26.2072M22.5085 26.2072L30.4941 17.2222M22.5085 26.2072L30.4941 17.2222M30.4941 17.2222C30.6897 17.0026 31.0212 16.9692 31.257 17.1456L30.4941 17.2222ZM51.5176 11.7774L51.6732 11.6296V11.4149V6.93761C51.6732 6.07271 50.972 5.3715 50.1071 5.3715H7.46276C6.59786 5.3715 5.89665 6.07271 5.89665 6.93761V38.9209V39.4209H6.39665H51.1732H51.6732V38.9209V14.3535V13.191L50.8293 13.9906L48.6971 16.0109L48.541 16.1588V16.3738V35.7225C48.541 36.0351 48.2875 36.2886 47.9749 36.2886H9.59498C9.28236 36.2886 9.02887 36.0351 9.02887 35.7225V9.06982C9.02887 8.75721 9.28236 8.50371 9.59498 8.50371H47.9749C48.2875 8.50371 48.541 8.75721 48.541 9.06982V13.441V14.6058L49.3854 13.8034L51.5176 11.7774ZM23.4544 40.5531H22.9544V41.0531V42.1192C22.9544 42.9841 23.6556 43.6853 24.5205 43.6853H33.0494C33.9143 43.6853 34.6155 42.9841 34.6155 42.1192V41.0531V40.5531H34.1155H23.4544ZM21.8222 41.0531V40.5531H21.3222H3.19833C2.33343 40.5531 1.63222 41.2543 1.63222 42.1192V46.3836C1.63222 47.2485 2.33343 47.9497 3.19833 47.9497H54.3715C55.2364 47.9497 55.9376 47.2485 55.9376 46.3836V42.1192C55.9376 41.2543 55.2364 40.5531 54.3715 40.5531H36.2477H35.7477V41.0531V42.1192C35.7477 43.6093 34.5395 44.8175 33.0494 44.8175H24.5205C23.0304 44.8175 21.8222 43.6093 21.8222 42.1192V41.0531ZM62.3343 3.73928C62.3343 2.87438 61.6331 2.17317 60.7682 2.17317C59.9033 2.17317 59.2021 2.87438 59.2021 3.73928C59.2021 4.60418 59.9033 5.30539 60.7682 5.30539C61.6331 5.30539 62.3343 4.60418 62.3343 3.73928ZM15.9916 25.5615C16.8565 25.5615 17.5577 24.8602 17.5577 23.9953C17.5577 23.1304 16.8565 22.4292 15.9916 22.4292C15.1267 22.4292 14.4255 23.1304 14.4255 23.9953C14.4255 24.8602 15.1267 25.5615 15.9916 25.5615Z" stroke="#4D5AE5" stroke-opacity="0.2"/>
</svg>